<?xml version="1.0" ?><svg width="60.031px" height="60.031px" viewBox="-0.02 0 60.031 60.031" xmlns="http://www.w3.org/2000/svg"><defs><style>
      .cls-1 {
        fill: #699f4c;
        fill-rule: evenodd;
      }
    </style></defs><path class="cls-1" d="M543.4,238.4a1.957,1.957,0,0,0-.706,1.292,13.6,13.6,0,0,0,.354,4.205c0.874,3.389,1.618,3.686,1.623,4.583A1.358,1.358,0,0,1,543,249.808c-3.37.027-8.255-6.354-8.863-6.957a3.36,3.36,0,0,0-.566-0.362c-0.655-.246-2.8.109-3.571,0.11-11.046,0-20-7.294-20-16.292s8.954-16.292,20-16.292,20,7.294,20,16.292C550,231.107,547.45,235.421,543.4,238.4ZM530,248.751c0.375,0,.752-0.025,1.138-0.059a40.1,40.1,0,0,0,3.232,3.259c-4.224,5.606-11.735,9.371-20.37,9.371-0.928,0-3.5-.428-4.286-0.132a4.055,4.055,0,0,0-.678.436c-0.73.728-6.592,8.425-10.636,8.393a1.63,1.63,0,0,1-2-1.6c0-1.082.9-1.44,1.947-5.528a16.512,16.512,0,0,0,.425-5.072,2.369,2.369,0,0,0-.847-1.559c-4.866-3.6-7.925-8.8-7.925-14.589,0-7.989,5.835-14.841,14.194-17.913A19.45,19.45,0,0,0,504,226.38C504,238.715,515.664,248.751,530,248.751Z" id="comments" transform="translate(-490 -210)"/></svg>