<?xml version="1.0" standalone="no"?>
<!DOCTYPE svg PUBLIC "-//W3C//DTD SVG 20010904//EN"
 "http://www.w3.org/TR/2001/REC-SVG-20010904/DTD/svg10.dtd">
<svg version="1.0" xmlns="http://www.w3.org/2000/svg"
 width="512.000000pt" height="512.000000pt" viewBox="0 0 512.000000 512.000000"
 preserveAspectRatio="xMidYMid meet">

<g transform="translate(0.000000,512.000000) scale(0.100000,-0.100000)"
fill="#000000" stroke="none">
<path d="M1040 2640 l0 -2240 -160 0 -160 0 0 -80 0 -80 1840 0 1840 0 0 80 0
80 -160 0 -160 0 0 2240 0 2240 -1520 0 -1520 0 0 -2240z m2880 -80 l0 -2160
-120 0 -120 0 0 2040 0 2040 -1120 0 -1120 0 0 -2040 0 -2040 -120 0 -120 0 0
2160 0 2160 1360 0 1360 0 0 -2160z m-400 -200 l0 -1960 -960 0 -960 0 0 1960
0 1960 960 0 960 0 0 -1960z"/>
<path d="M1892 2309 c-48 -14 -109 -80 -123 -131 -36 -135 55 -253 197 -253
112 0 189 77 189 190 0 113 -69 192 -176 200 -29 2 -69 0 -87 -6z m98 -164
c26 -32 -13 -81 -47 -59 -35 22 -23 74 17 74 10 0 23 -7 30 -15z"/>
</g>
</svg>
