<?xml version="1.0" ?><svg width="60.281px" height="60.281px" viewBox="0 -0.31 60.281 60.281" id="key" xmlns="http://www.w3.org/2000/svg"><defs><style>
      .cls-1 {
        fill: #65727f;
      }

      .cls-1, .cls-2 {
        fill-rule: evenodd;
      }

      .cls-2 {
        fill: #9f4c4c;
      }
    </style></defs><path class="cls-1" d="M651.4,479.751l8.2,8.2-21.074,21.1a2.05,2.05,0,0,1-2.9,0l-5.327-5.31a2.05,2.05,0,0,1,0-2.9Z" data-name="key" id="key-2" transform="translate(-629.688 -450)"/><path class="cls-2" d="M688.937,469.912l-9.53,13.459c-5.839,8.232-14.216,2.644-15.583,1.266l-8.478-8.562c-1.635-1.91-6.326-9.835,1.477-15.447l13.365-9.6a3.487,3.487,0,0,1,4.956,0L682.016,458l6.921,6.922A3.547,3.547,0,0,1,688.937,469.912Zm-8.366-6.382-4.474-4.451a2.253,2.253,0,0,0-3.157-.2l-1.478,1.472a2.224,2.224,0,0,0,.2,3.14l4.471,4.45a2.255,2.255,0,0,0,3.157.2l1.479-1.472A2.224,2.224,0,0,0,680.571,463.53Z" data-name="key copy" id="key_copy" transform="translate(-629.688 -450)"/></svg>