<?xml version="1.0" encoding="iso-8859-1"?>
<!-- Generator: Adobe Illustrator 16.0.0, SVG Export Plug-In . SVG Version: 6.00 Build 0)  -->
<!DOCTYPE svg PUBLIC "-//W3C//DTD SVG 1.1//EN" "http://www.w3.org/Graphics/SVG/1.1/DTD/svg11.dtd">
<svg version="1.1" id="Capa_1" xmlns="http://www.w3.org/2000/svg" xmlns:xlink="http://www.w3.org/1999/xlink" x="0px" y="0px"
	 width="56.507px" height="56.507px" viewBox="0 0 56.507 56.507" style="enable-background:new 0 0 56.507 56.507;"
	 xml:space="preserve">
<g>
	<g>
		<path d="M49.036,31.889c0-2.863-2.342-5.451-6.124-7.323c0.092,1.926,0.248,4.054,0.495,6.446l0.022,0.22l-0.096,0.197
			c-0.098,0.206-2.546,5.018-15.217,5.018c-0.432,0-0.781-0.351-0.781-0.781c0-0.023,0.012-0.043,0.014-0.066
			c0.035-0.395,0.353-0.706,0.755-0.713c0.004,0,0.008-0.002,0.012-0.002c0.571,0,1.111-0.013,1.638-0.031
			c8.891-0.323,11.548-3.229,12.069-3.947c-0.267-2.633-0.428-4.968-0.511-7.049c-0.362-9.193,0.838-13.373,1.546-15.831
			c0.627-2.171,0.722-2.506-0.783-4.011c-2.86-2.862-9.015-3.684-12.321-3.919c-0.531-0.037-0.986-0.061-1.347-0.074
			C27.914,0.002,27.608,0,27.558,0v0.006c-3.627-0.031-10.78,0.331-13.904,3.455c-3.843,3.843,1.31,2.876,0.511,20.847
			c-4.107,1.889-6.694,4.582-6.694,7.581c0,5.706,9.305,10.331,20.783,10.331C39.73,42.222,49.036,37.596,49.036,31.889z
			 M14.755,7.653c0.183-0.39,0.645-0.559,1.04-0.375c0.027,0.014,0.69,0.317,1.83,0.708c2.07,0.71,5.727,1.709,10.085,1.806
			c0.666,0.015,1.35,0.008,2.045-0.024c2.704-0.124,5.605-0.636,8.521-1.782c0.546-0.214,1.091-0.444,1.636-0.704
			c0.391-0.188,0.855-0.021,1.042,0.368c0.188,0.389,0.022,0.855-0.367,1.042c-3.718,1.78-7.436,2.522-10.833,2.679
			c-0.485,0.023-0.963,0.033-1.434,0.033c-0.199,0-0.391-0.008-0.585-0.012c-7.017-0.131-12.271-2.54-12.606-2.698
			C14.739,8.507,14.571,8.043,14.755,7.653z"/>
		<path d="M31.009,48.639c-0.387,1.158-1.467,1.998-2.755,1.998c-1.266,0-2.332-0.81-2.735-1.937
			c-3.997-0.385-6.953-1.756-7.035-4.267c-1.515,0.631-2.719,1.77-3.271,3.307c-1.153,3.214,0.97,6.917,4.742,8.27
			c3.263,1.172,6.687,0.198,8.299-2.164c1.612,2.362,5.036,3.336,8.3,2.164c3.771-1.353,5.895-5.056,4.742-8.27
			c-0.615-1.714-2.043-2.935-3.809-3.502c0.002,0.029,0.009,0.059,0.009,0.09C37.495,46.768,34.776,48.171,31.009,48.639z"/>
	</g>
</g>
<g>
</g>
<g>
</g>
<g>
</g>
<g>
</g>
<g>
</g>
<g>
</g>
<g>
</g>
<g>
</g>
<g>
</g>
<g>
</g>
<g>
</g>
<g>
</g>
<g>
</g>
<g>
</g>
<g>
</g>
</svg>
